<svg width="484" height="750" viewBox="0 0 484 750" fill="none" xmlns="http://www.w3.org/2000/svg">
<path d="M291.706 8.43201e-05C293.189 0.592635 294.676 1.18942 296.557 1.9428C292.994 3.71622 289.762 5.32458 286.53 6.93716C286.559 7.11493 286.589 7.29269 286.619 7.47046C287.102 7.52971 287.585 7.66515 288.063 7.63976C292.079 7.43236 296.095 7.16148 300.115 6.98795C302.013 6.90753 303.945 6.79749 305.818 7.04297C311.744 7.82176 314.705 11.1316 315.48 17.0317C315.747 19.0548 316.294 21.3912 317.552 22.8725C322.297 28.4383 323.398 35.0283 323.928 41.94C324.296 46.7142 324.75 51.5054 325.593 56.212C326.169 59.4245 327.232 62.6115 328.524 65.6166C330.197 69.5105 331.023 73.4806 330.104 77.5608C329.435 80.5277 329.553 83.3677 329.778 86.3347C330.469 95.4685 330.829 104.628 331.561 113.761C331.854 117.389 332.765 120.969 333.425 124.563C334.764 131.826 336.23 139.068 337.433 146.352C337.958 149.526 337.047 151.024 333.972 152.006C329.087 153.568 324.089 154.783 319.141 156.154C317.895 156.501 316.662 156.895 315.519 157.483C318.077 157.483 320.636 157.483 323.191 157.483C324.601 157.483 326.016 157.466 327.427 157.5C331.943 157.614 332.942 158.321 334.387 162.499C335.141 164.687 335.823 166.9 336.586 169.262C329.431 169.707 322.39 166.206 315.37 169.529C326.135 169.978 332.608 176.115 337.052 185.663C330.646 184.817 324.546 184.013 318.45 183.208C318.399 183.335 318.348 183.467 318.298 183.593C319.263 184.051 320.229 184.512 321.191 184.969C324.817 186.696 328.456 188.389 332.061 190.162C336.755 192.473 339.297 196.342 339.119 201.51C338.928 206.991 338.251 212.459 337.666 217.919C336.332 230.392 334.484 242.832 335.328 255.44C335.696 260.972 336.853 266.347 339.39 271.299C340.864 274.178 340.466 276.637 338.822 279.235C337.166 281.847 335.675 284.568 334.196 287.286C333.184 289.148 332.938 291.099 333.633 293.198C334.561 296 335.23 298.891 336.192 301.685C337.31 304.939 339.149 307.771 341.889 309.925C345.554 312.803 347.015 316.689 347.202 321.201C347.312 323.948 347.176 326.745 347.689 329.42C348.223 332.214 348.892 335.219 350.417 337.525C353.044 341.513 353.815 345.567 353.175 350.168C351.735 360.491 350.947 370.937 348.943 381.146C346.215 395.02 342.538 408.708 339.386 422.501C337.268 431.766 335.353 441.074 333.353 450.368C333.281 450.707 333.277 451.058 333.62 451.553C334.569 449.386 335.747 447.283 336.437 445.035C343.758 421.219 351.171 397.424 358.153 373.506C359.894 367.542 360.351 361.173 361.059 354.955C361.804 348.382 364.211 342.588 368.112 337.327C368.824 336.366 369.658 335.418 370.057 334.321C370.569 332.908 371.336 331.113 370.874 329.903C369.574 326.47 370.811 323.601 371.933 320.562C372.315 319.525 372.632 317.523 372.259 317.324C370.955 316.638 369.345 316.397 367.833 316.308C367.223 316.274 366.477 316.989 365.956 317.523C365.371 318.115 364.939 318.873 364.499 319.592C362.291 323.19 360.974 323.846 356.916 322.597C356.022 322.322 354.992 320.807 354.933 319.808C354.543 313.311 351.629 308.165 347.185 303.593C345.139 301.49 343.482 298.989 341.775 296.576C340.424 294.667 340.386 292.572 341.801 290.663C342.97 289.08 344.241 287.557 345.609 286.143C347.244 284.458 349.324 283.756 351.616 284.458C354.878 285.457 357.348 284.268 359.644 282.063C366.604 275.38 372.827 268.049 377.665 259.728C382.401 251.584 386.616 243.128 390.916 234.735C392.907 230.849 394.818 227.066 399.3 225.419C400.033 225.152 400.566 224.145 401.024 223.379C402.689 220.611 404.26 217.788 405.904 215.007C407.539 212.243 408.264 209.289 407.844 206.093C407.391 202.682 408.357 199.791 410.505 197.07C420.117 184.889 430.174 173.004 438.989 160.268C445.433 150.965 453.393 145.518 464.458 144.193C466.763 143.918 469.02 143.292 471.308 142.873C473.803 142.415 474.909 143.182 475.608 146.009C473.587 146.673 471.579 147.516 469.486 147.99C460.472 150.034 453.846 155.134 449.385 163.18C448.534 164.717 447.382 166.088 446.522 167.616C446.225 168.141 446.394 168.928 446.352 169.597C446.598 169.647 446.848 169.698 447.093 169.749C450.199 166.384 453.321 163.032 456.409 159.65C462.285 153.208 469.813 151.503 478.129 152.053C478.611 152.087 479.094 152.26 479.565 152.404C484.318 153.869 485.334 156.281 482.259 160.103C475.4 168.632 470.27 178.176 465.314 187.834C464.166 190.078 463.297 192.478 462.433 194.852C459.459 203.021 453.156 206.766 444.539 205.433C443.077 205.205 441.603 204.98 440.129 204.917C439.549 204.891 438.951 205.315 438.362 205.535C438.392 205.785 438.422 206.038 438.447 206.288C442.878 207.355 447.309 208.413 451.736 209.484C452.558 209.683 453.393 209.856 454.181 210.148C457.282 211.299 458.345 213.242 457.519 216.425C456.845 219.011 455.973 221.542 455.291 224.128C454.439 227.37 452.287 229.279 449.25 230.384C447.869 230.888 446.505 231.429 444.895 232.043C447.309 234.312 449.559 236.419 451.91 238.629C451.262 239.606 450.694 240.571 450.017 241.452C447.538 244.681 445.259 245.456 441.54 243.767C437.697 242.023 434.033 239.899 430.292 237.926C429.365 237.435 428.458 236.906 427.543 236.39C427.374 236.538 427.208 236.69 427.039 236.838C428.073 238.04 428.928 239.488 430.178 240.389C432.055 241.735 434.279 242.573 436.219 243.843C438.083 245.062 439.816 246.501 441.523 247.94C442.374 248.656 442.158 249.439 441.4 250.285C438.405 253.62 434.643 254.479 430.267 252.554C425.882 250.624 421.553 248.571 417.194 246.573C416.512 246.26 415.817 245.976 414.754 245.519C416.605 249.773 418.965 252.892 423.374 253.917C423.785 254.014 424.209 254.056 424.62 254.149C430.246 255.398 431.402 257.954 428.314 262.889C425.361 267.609 422.252 272.235 419.075 276.81C415.084 282.558 413.491 289.021 412.818 295.852C412.453 299.556 411.987 303.276 411.178 306.899C410.382 310.471 408.2 313.218 404.93 315.055C404.349 315.381 403.765 316.126 403.638 316.765C402.875 320.562 402.18 324.375 401.608 328.201C401.435 329.348 401.481 330.652 401.854 331.74C402.939 334.914 402.54 337.94 401.63 341.064C397.809 354.172 394.034 367.297 390.323 380.439C389.637 382.868 389.476 385.446 388.806 387.884C387.938 391.037 386.798 394.118 385.629 397.674C386.15 398.156 387.002 399.235 388.099 399.925C394.356 403.878 395.784 409.588 394.453 416.449C392.335 427.352 388.645 437.768 384.651 448.079C380.279 459.362 378.495 471.019 378.881 483.077C378.97 485.875 378.893 488.744 378.372 491.487C377.296 497.159 373.861 501.421 368.917 504.125C363.99 506.822 358.775 509.005 353.624 511.27C349.049 513.28 344.355 515.028 339.763 517.009C332.824 520.002 328.609 525.635 326.194 532.449C324.178 538.134 322.839 544.08 321.509 549.985C320.217 555.715 322.758 560.316 326.728 564.189C327.499 564.942 328.867 565.357 329.986 565.412C331.858 565.501 333.747 565.175 336.348 564.963C335.497 564.092 335.175 563.486 334.688 563.304C330.422 561.704 328.346 558.395 327.893 554.132C327.351 549.024 327.096 543.877 326.902 538.743C326.859 537.66 327.575 536.534 328.02 535.459C328.202 535.018 328.638 534.688 328.888 534.265C335.721 522.825 346.922 519.659 359.093 518.546C362.008 518.279 365.011 518.694 367.947 519.024C381.003 520.492 392.67 539.077 381.024 553.464C379.906 554.848 378 555.605 376.436 556.621C375.166 557.447 373.585 557.984 372.624 559.072C370.624 561.336 370.785 562.492 372.747 564.765C378.097 570.978 378.572 578.093 376.644 585.66C375.674 589.478 374.445 593.262 373.89 597.139C373.484 600.009 373.657 603.06 374.14 605.934C375.064 611.398 373.518 615.381 368.582 618.462C367.21 617.265 365.74 616.071 364.371 614.776C359.589 610.239 353.844 608.122 347.359 608.711C338.441 609.519 329.515 610.442 320.678 611.843C306.199 614.137 291.787 616.862 277.341 619.372C275.257 619.736 273.135 619.855 271.05 620.202C270.322 620.325 269.648 620.79 268.949 621.099C269.661 621.323 270.385 621.776 271.084 621.738C276.439 621.45 281.789 621.091 287.14 620.71C300.022 619.796 312.901 618.805 325.787 617.954C333.671 617.434 341.568 617.095 349.46 616.727C350.934 616.659 352.421 616.862 353.899 616.939C359.203 617.214 362.109 620.663 364.096 624.997C365.333 627.693 363.198 631.113 359.584 632.231C355.285 633.56 350.9 634.652 346.507 635.659C341.322 636.853 341.059 636.908 341.301 642.186C341.834 653.74 342.567 665.282 343.126 676.833C343.554 685.636 344.016 694.449 344.084 703.256C344.101 705.39 343.046 707.844 341.745 709.605C339.246 712.987 337.2 716.364 337.272 720.728C337.28 721.287 336.797 722.226 336.357 722.358C332.832 723.411 331.286 726.188 330.032 729.261C329.295 731.068 328.588 732.884 327.723 735.068C324.737 730.7 323.195 726.209 322.691 721.452C322.076 715.641 321.945 709.779 321.449 703.95C320.733 695.524 319.746 687.118 319.128 678.687C318.45 669.405 318.082 660.102 317.539 650.807C317.412 648.632 317.306 646.427 316.878 644.298C316.294 641.381 314.629 640.374 311.227 640.463C307.999 640.548 306.402 641.635 306.101 644.619C305.669 648.89 305.479 653.194 305.377 657.49C304.949 675.123 304.869 692.747 305.89 710.371C306.186 715.463 305.716 720.639 305.148 725.727C304.919 727.784 303.793 729.938 302.505 731.61C301.556 732.846 299.645 734.128 298.239 734.048C296.167 733.934 295.108 731.834 294.757 729.777C294.252 726.789 293.829 723.788 293.443 720.783C291.622 706.664 289.724 692.557 288.059 678.42C286.979 669.252 286.271 660.038 285.348 650.849C285.178 649.173 284.95 647.463 284.407 645.885C284.157 645.153 283.124 644.319 282.37 644.238C281.726 644.171 280.565 644.992 280.362 645.643C279.955 646.947 279.858 648.424 279.963 649.8C280.828 660.978 281.819 672.143 282.658 683.321C282.874 686.195 282.59 689.103 282.704 691.989C283.103 702.054 283.53 712.119 284.047 722.18C284.179 724.779 285.471 726.908 287.131 728.969C288.915 731.182 290.414 733.701 291.626 736.283C292.897 738.991 294.706 740.765 297.599 741.451C299.404 741.878 299.853 742.919 299.01 744.663C297.743 747.287 295.511 748.798 292.973 749.971H289.584C284.217 746.58 278.765 743.385 272.423 742.102C270.351 741.683 268.301 741.15 266.259 740.617C262.857 739.732 260.714 737.641 260.231 734.073C259.413 728 258.553 721.93 257.829 715.844C255.423 695.549 253.08 675.25 250.695 654.951C250.309 651.666 249.954 648.373 249.369 645.123C248.729 641.576 246.459 639.422 242.955 638.609C239.321 637.767 235.665 636.996 232.03 636.15C231.005 635.913 230.001 635.557 229.014 635.181C222.82 632.819 221.706 627.791 226.544 623.296C228.374 621.594 230.505 620.058 232.759 618.996C240.591 615.301 248.429 611.466 257.1 610.116C263.366 609.138 269.678 608.397 275.994 607.796C287.529 606.696 298.074 602.231 308.808 598.404C308.902 598.371 308.948 598.214 309.198 597.854C292.715 596.872 277.468 602.231 261.904 605.595C246.073 609.02 231.691 615.847 217.923 624.519C217.779 624.083 217.627 623.842 217.635 623.609C217.889 612.211 214.42 601.507 211.48 590.714C208.688 580.45 204.278 570.872 198.872 561.742C195.28 555.677 191.611 549.659 187.96 543.636C186.439 541.13 184.367 539.323 181.432 538.633C175.963 537.351 171.959 534.1 169.134 529.343C168.274 527.891 167.439 526.405 166.778 524.856C161.991 513.653 155.234 503.732 147.236 494.606C143.343 490.162 138.95 486.395 133.447 483.979C127.533 481.38 124.441 476.995 125.233 470.248C125.547 467.599 124.661 467.087 122.141 468.124C121.035 468.581 119.989 469.182 118.879 469.63C116.816 470.469 115.888 470.342 113.829 469.051C114.727 466.795 115.701 464.547 116.519 462.241C118.116 457.746 117.349 456.349 112.723 455.033C111.575 454.707 110.419 454.415 109.169 454.08C109.093 452.815 108.885 451.617 108.974 450.44C109.961 437.777 105.933 426.539 99.0656 416.178C96.3459 412.073 93.2576 408.208 90.3261 404.238C89.6144 403.273 88.8519 402.346 88.1529 401.373C85.179 397.246 83.7895 392.963 87.2082 388.04C82.7347 388.341 78.706 390.296 74.2536 389.01C74.673 386.449 75.8846 384.303 77.6935 382.648C79.8667 380.655 82.3026 378.953 84.6452 377.146C86.3567 375.825 88.0978 374.547 89.7034 373.036C81.8112 375.191 74.8806 380.257 66.2937 380.485C66.3826 377.557 67.7043 375.597 69.9877 374.276C74.3214 371.771 78.7949 369.489 82.9931 366.785C85.4925 365.172 87.6572 363.009 89.805 360.919C90.5888 360.152 90.8811 358.883 91.0166 357.528C89.8855 358.417 88.746 359.298 87.6191 360.199C81.3875 365.189 74.1774 368.114 66.5309 370.061C64.2899 370.632 62.0658 370.412 59.9646 369.24C60.1299 366.624 61.9388 365.481 63.9002 364.385C65.942 363.246 67.9077 361.972 69.903 360.762C69.7886 360.466 69.67 360.169 69.5556 359.869C67.9628 360.11 66.2937 360.123 64.794 360.639C59.6342 362.417 55.5674 360.94 52.1614 356.898C45.1376 348.56 37.4488 340.911 28.5992 334.482C21.1984 329.107 13.1918 324.875 4.62179 321.649C2.94422 321.019 1.53778 319.677 0.00424194 318.665C1.17346 317.226 2.11391 315.487 3.55849 314.424C5.69357 312.854 8.08708 311.508 10.5653 310.569C11.9294 310.052 13.8696 310.107 15.2295 310.674C26.5785 315.411 37.6564 320.676 47.1287 328.718C50.1915 331.316 53.0595 334.139 56.1054 336.764C57.1772 337.686 58.4989 338.317 59.7062 339.079C59.8291 338.939 59.9519 338.804 60.0748 338.664C60.0028 338.431 59.9901 338.152 59.8503 337.978C48.0268 323.44 33.7336 312.304 15.615 306.759C11.4295 305.477 6.88821 305.342 2.41045 304.664C3.26618 302.874 4.21935 300.991 6.56625 299.882C15.2633 295.763 24.1934 292.661 33.9665 292.919C36.1948 292.978 38.5502 293.207 40.6006 293.994C52.1826 298.443 63.7815 302.95 74.0461 310.082C78.1383 312.926 81.9001 316.287 85.5688 319.673C88.7375 322.597 91.1734 326.068 92.7408 330.237C94.8039 335.722 98.7817 339.913 103.391 343.404C108.788 347.493 114.507 351.167 119.764 355.416C123.467 358.409 126.597 362.099 130.046 365.413C132.121 367.411 134.265 369.341 136.472 371.191C137.709 372.228 139.056 373.193 140.492 373.917C145.584 376.481 147.622 380.405 146.423 386.055C146.266 386.8 146.766 387.947 147.347 388.531C149.643 390.855 151.18 393.594 151.036 396.806C150.757 402.994 150.159 409.165 149.588 415.336C148.372 428.491 150.147 441.213 155.162 453.437C155.963 455.392 157.45 457.068 158.619 458.876C158.857 458.795 159.09 458.711 159.327 458.63C159.153 457.521 159.077 456.387 158.789 455.312C154.277 438.39 153.447 421.24 155.76 403.934C156.251 400.26 157.412 396.666 158.403 393.073C159.378 389.543 159.314 386.254 157.734 382.805C157.077 381.378 157.331 379.106 158.005 377.586C159.712 373.722 159.289 370.399 156.772 367.106C155.451 365.38 154.353 363.471 153.235 361.596C151.536 358.747 151.341 355.763 152.591 352.674C153.968 349.283 155.213 345.83 156.713 342.494C157.331 341.123 157.166 340.217 156.255 339.125C155.006 337.619 153.921 335.972 152.705 334.309C156.332 330.995 160.657 330.009 165.236 329.767C167.21 329.666 169.193 329.801 171.163 329.683C176.119 329.378 180.262 327.215 183.838 323.626C177.937 324.468 172.044 325.382 166.126 326.132C163.292 326.491 160.373 326.94 157.569 326.639C154.036 326.259 150.27 320.832 150.786 317.485C150.867 316.947 151.422 316.414 151.875 316.016C154.099 314.06 156.832 313.409 159.687 313.189C167.003 312.621 174.34 312.241 181.635 311.462C184.19 311.191 186.647 309.976 189.15 309.197C189.095 308.884 189.04 308.575 188.985 308.262C188.303 308.228 187.557 307.995 186.947 308.186C180.699 310.175 174.391 309.46 168.062 308.804C163.788 308.359 159.496 308.038 155.205 307.847C153.354 307.767 152.112 306.941 151.163 305.562C148.236 301.325 145.97 296.788 145.97 291.505C145.97 283.612 146.237 275.718 146.19 267.829C146.156 262.14 146.207 256.393 145.423 250.785C144.995 247.737 143.301 244.639 141.484 242.049C135.824 233.969 138.247 225.377 147.461 221.906C150.206 220.873 152.951 219.845 155.7 218.816C155.667 218.605 155.633 218.397 155.599 218.186C148.897 217.661 142.191 217.132 135.519 216.607C135.112 213.441 136.154 211.884 139.454 210.787C145.072 208.925 150.719 207.152 156.319 205.247C157.594 204.811 158.742 203.994 159.852 203.076C150.481 203.744 141.445 208.163 131.727 204.963C132.6 202.691 134.028 201.048 136.099 199.999C138.099 198.987 140.136 198.06 142.153 196.672C138.916 196.57 135.671 196.274 132.447 196.435C130.126 196.549 128.914 195.618 127.775 193.756C123.704 187.098 122.374 179.915 123.217 172.25C124.055 164.653 122.751 157.369 120.001 150.301C116.536 141.387 113.147 132.444 109.533 123.589C107.212 117.901 104.848 112.242 104.268 106.062C103.653 99.4978 102.222 92.8909 104.518 86.3728C106.081 81.9329 109.283 79.1183 113.736 77.3322C111.143 90.3768 114.761 102.549 117.205 115.145C119.493 111.7 120.179 108.323 119.179 104.623C118.756 103.062 118.468 101.462 118.04 99.8999C117.184 96.7763 117.396 93.6866 117.756 90.4868C118.286 85.7506 118.277 80.9594 118.519 75.7281C123.106 74.4626 127.906 71.9104 133.312 72.469C137.692 72.9219 141.043 75.4064 142.547 79.5881C144.733 85.6745 146.605 91.8793 148.516 98.063C150.278 103.76 152.489 109.131 156.645 113.643C159.941 117.224 160.526 121.934 160.144 126.573C159.492 134.505 160.784 142.102 162.809 149.738C164.881 157.551 166.232 165.555 168.049 173.435C168.68 176.161 169.379 179.005 170.744 181.401C172.273 184.093 174.323 186.649 176.653 188.681C178.276 190.095 179.17 191.204 178.598 193.303C178.36 194.179 178.458 195.157 178.17 196.012C176.763 200.202 178.233 202.974 182.224 204.604C182.542 204.735 182.8 205.006 182.936 205.103C183.058 206.026 182.974 206.889 183.296 207.558C186.841 214.965 187.507 222.96 188.434 230.955C188.968 235.535 190.12 240.081 191.387 244.533C192.425 248.177 194.831 251.077 197.602 253.705C199.317 255.334 200.834 257.235 202.143 259.211C206.892 266.373 211.42 273.687 216.22 280.81C218.783 284.615 219.711 288.352 217.783 292.72C216.885 294.76 216.601 297.063 215.894 299.196C215.411 300.652 214.945 302.248 214.005 303.399C211.738 306.167 212.183 308.922 213.729 311.639C214.509 313.007 215.635 314.302 216.894 315.25C220.888 318.268 222.786 322.551 224.299 327.046C225.341 330.148 224.582 333.124 223.193 336.04C222.452 337.593 221.774 339.354 221.753 341.034C221.659 348.864 221.931 356.686 224.354 364.245C224.553 364.876 224.837 365.477 225.476 366.027C225.79 361.647 226.116 357.266 226.417 352.881C226.968 344.86 227.506 336.84 228.044 328.819C228.306 324.904 227.209 321.391 224.625 318.454C219.52 312.66 218.724 306.192 221.384 299.141C223.443 293.689 224.438 288.208 222.85 282.389C222.46 280.954 222.769 279.049 223.405 277.657C228.912 265.509 229.59 252.583 229.789 239.577C229.908 231.671 229.874 223.756 227.743 216.065C226.921 213.103 225.739 210.203 224.422 207.418C220.261 198.619 221.892 190.514 229.425 184.292C234.33 180.237 239.859 177.609 246.433 177.825C247.403 177.858 248.378 177.829 249.517 177.829C247.865 175.416 244.489 174.443 241.049 175.421C239.164 175.958 237.368 176.813 235.55 177.575C230.412 179.729 226.184 179.941 222.036 178.201C225.04 170.981 235.525 165.732 249.78 164.467C247.882 162.842 245.904 162.334 243.815 162.74C240.913 163.299 238.079 164.175 235.194 164.831C231.653 165.635 228.882 165.081 226.264 163.091C228.365 160.823 230.454 158.562 232.695 156.141C230.585 154.038 228.611 151.956 226.502 150.021C225.387 148.997 225.048 148.028 225.387 146.517C227.853 135.453 230.403 124.406 232.534 113.275C233.343 109.046 233.483 104.602 233.225 100.298C233.097 98.1815 231.644 95.951 230.28 94.1522C228.442 91.7269 227.446 89.1494 227.34 86.1866C227.184 81.8483 227.764 77.5015 226.239 73.2013C225.79 71.9315 226.908 69.9846 227.586 68.4693C228.247 66.9922 228.217 66.0568 226.925 64.8378C223.176 61.2995 221.71 56.6141 221.549 51.6536C221.24 42.0754 222.409 32.6539 225.769 23.6132C227.645 18.5596 230.873 14.5684 235.639 11.885C237.605 10.7803 239.376 9.15076 241.464 8.46933C249.92 5.7182 259.358 5.17221 264.018 15.1228C264.45 16.0497 265.018 16.9132 265.666 18.0644C271.61 10.4755 277.189 2.94591 286.64 -0.0168457C288.334 -0.0168457 290.029 -0.0168457 291.723 -0.0168457L291.706 8.43201e-05ZM295.71 458.389C296.015 457.746 296.214 457.475 296.277 457.174C296.964 453.864 297.603 450.546 298.307 447.245C301.408 432.706 304.153 418.108 305.673 403.303C307.232 388.163 308.711 373.019 310.41 357.897C311.176 351.082 313.312 344.814 319.412 340.666C319.975 340.281 320.441 339.439 320.551 338.749C321.708 331.35 322.551 323.931 321.322 316.452C320.818 313.379 319.191 311.369 316.018 311.009C313.345 310.708 312.261 309.231 311.511 307.068C311.096 305.875 310.507 304.69 310.363 303.462C309.91 299.551 309.668 295.619 309.245 291.704C309.164 290.964 308.825 290.003 308.275 289.614C306.279 288.196 304.144 286.977 301.958 285.618C299.878 288.031 297.87 290.358 295.803 292.754C298.646 296.487 301.348 300.097 304.11 303.657C306.72 307.026 307.423 310.56 305.398 314.479C304.021 317.142 304.004 319.897 305.152 322.652C306.855 326.741 306.444 330.715 304.818 334.757C304.098 336.539 303.665 338.55 303.636 340.467C303.598 342.816 304.53 345.207 304.331 347.518C303.598 356.009 302.623 364.482 301.641 372.952C300.505 382.746 298.9 392.501 298.154 402.325C297.04 417.012 296.455 431.745 295.739 446.462C295.553 450.284 295.71 454.118 295.71 458.393V458.389ZM276.892 311.14C274.795 307.657 271.889 305.718 268.009 306.501C263.988 307.31 260.091 308.723 255.825 309.968C258.164 314.187 258.96 318.107 258.875 322.284C258.846 323.601 259.502 325.031 260.159 326.242C261.913 329.463 261.595 330.931 258.392 332.777C256.766 333.716 255.105 334.588 253.139 335.667C254.999 337.454 256.575 339.159 258.346 340.624C260.214 342.164 261.015 344.035 261.26 346.405C261.57 349.41 262.112 352.407 262.734 355.365C264.438 363.45 265.857 371.517 265.001 379.872C264.433 385.399 264.408 390.986 264.238 396.548C264.086 401.483 264.039 406.418 264.005 411.353C263.904 426.366 263.527 441.383 263.866 456.383C264.082 465.876 265.348 475.349 266.259 484.821C266.386 486.15 267.157 487.415 267.627 488.711C267.848 488.647 268.072 488.579 268.293 488.516C268.475 485.312 268.864 482.099 268.801 478.9C268.589 468.682 268.373 458.461 267.856 448.256C266.289 417.346 268.534 386.699 273.728 356.225C274.105 354.015 274.393 351.298 273.461 349.457C270.881 344.357 271.707 340.018 274.88 335.651C278.311 330.927 277.532 327.469 272.546 324.456C272.003 324.125 271.398 323.871 270.932 323.457C270.618 323.177 270.305 322.669 270.322 322.28C270.461 319.334 271.038 316.545 273.41 314.454C274.571 313.43 275.659 312.325 276.896 311.149L276.892 311.14ZM240.333 467.722C240.49 467.671 240.642 467.62 240.799 467.565C240.799 466.397 240.981 465.195 240.769 464.065C239.795 458.876 239.016 453.623 237.601 448.553C235.088 439.546 231.924 430.717 229.458 421.702C222.829 397.47 216.419 373.184 209.933 348.915C208.832 344.788 207.557 340.776 208.298 336.294C208.908 332.582 205.176 328.206 201.304 327.346C202.96 331.765 201.397 335.54 199.249 339.235C198.296 340.873 197.415 342.571 196.691 344.323C195.234 347.844 195.623 350.045 198.784 352.013C203.126 354.718 205.142 358.557 206.468 363.344C210.743 378.788 216.161 393.873 220.393 409.368C225.684 428.74 233.11 447.533 239.63 466.566C239.774 466.981 240.1 467.332 240.341 467.717L240.333 467.722ZM183.613 479.903C185.549 486.146 188.816 491.11 193.018 495.635C197.275 500.219 201.469 504.93 205.121 509.996C214.106 522.448 222.693 535.188 231.594 547.699C234.135 551.271 237.215 554.458 240.193 557.997C242.172 554.611 241.324 551.953 239.596 549.316C231.454 536.885 223.333 524.437 215.22 511.985C210.221 504.316 205.367 496.549 200.224 488.977C196.369 483.301 190.459 480.999 183.609 479.894L183.613 479.903ZM280.709 206.055C274.643 218.685 275.905 255.961 283.141 270.563C283.924 266.821 284.835 263.038 284.839 259.254C284.856 248.474 284.539 237.693 284.28 226.917C284.174 222.482 283.967 218.046 283.632 213.623C283.425 210.885 282.505 208.332 280.709 206.051V206.055ZM282.158 140.993C284.729 134.115 285.064 127.081 284.255 120.051C283.361 112.288 281.895 104.594 280.9 96.844C280.493 93.6781 279.739 90.8212 277.379 88.451C273.944 91.2656 273.385 94.9225 274.134 98.9645C275.905 108.522 277.68 118.074 279.489 127.623C280.336 132.088 281.268 136.536 282.162 140.993H282.158ZM237.435 53.8376C236.419 45.1144 235.478 36.8652 234.457 28.6245C234.394 28.1166 233.703 27.6891 233.301 27.2236C232.86 27.6383 232.149 27.9896 232.026 28.4848C230.971 32.6793 230.403 36.9329 231.149 41.2501C231.954 45.9143 233.932 50.0029 237.435 53.8376Z" fill="white"/>
</svg>
