<svg width="952" height="255" viewBox="0 0 952 255" fill="none" xmlns="http://www.w3.org/2000/svg">
<g clip-path="url(#clip0_64_1856)">
<path d="M312.691 221.016C312.131 220.815 311.841 220.145 312.07 219.561C314.121 214.216 316.273 208.914 318.56 203.684C320.793 198.576 323.209 193.555 325.678 188.577C327.769 184.363 342.935 153.646 345.013 149.425C345.486 148.459 345.742 146.961 345.391 146.01C340.804 133.742 336.135 121.517 331.358 109.335C330.636 107.499 329.26 105.95 327.972 103.933C330.69 102.953 333.389 101.937 336.115 101.008C337.795 100.439 339.495 99.6968 341.222 99.5527C345.789 99.1781 347.914 101.13 349.574 105.734C352.158 112.909 355.059 119.954 357.994 127.475C358.675 126.502 359.188 125.861 359.606 125.148C361.792 121.431 364.936 115.668 367.277 112.059C376.837 97.3051 386.66 82.7462 396.321 68.0648C401.28 60.5224 405.867 52.6919 411.082 45.3584C416.203 38.1546 419.907 30.1584 423.827 22.2486C424.353 21.1824 425.25 20.3251 426.087 19.2158C426.66 19.9001 427.024 20.1739 427.166 20.5341C429.035 25.4543 430.931 30.3673 432.705 35.3235C434.702 40.8992 432.644 45.6538 429.844 50.2282C423.523 60.5512 417.282 70.9319 410.86 81.1902C408.465 85.0154 405.496 88.4228 403.094 92.2408C399.148 98.5154 395.559 105.042 391.625 111.324C386.201 119.997 380.332 128.361 375.15 137.193C368.248 148.964 349.001 187.706 342.382 199.671C341.512 201.242 340.696 202.848 339.913 204.469C339.663 204.981 339.313 205.773 339.501 206.119C340.898 208.633 339.083 208.633 337.639 209.591C333.72 212.184 329.935 215.059 326.346 218.142C324.592 219.647 323.128 221.549 321.522 223.494C321.245 223.826 320.814 223.948 320.422 223.811L312.691 221.016Z" fill="#FFA600"/>
<path d="M135.938 200.896C137.989 199.779 139.426 199.037 140.822 198.216C144.742 195.918 148.723 193.721 152.501 191.178C153.654 190.407 154.687 188.75 154.983 187.317C157.399 175.726 159.443 164.048 161.986 152.494C163.572 145.319 165.832 138.324 167.802 131.25C168.362 129.254 169.205 127.302 169.455 125.263C169.603 124.046 169.239 122.288 168.463 121.481C164.921 117.807 162.884 113.492 162.513 108.248C162.479 107.772 162.135 107.318 162.196 107.455C164.037 106.44 165.832 105.683 167.397 104.559C176.572 97.9535 186.247 92.3273 196.124 87.0253C200.023 84.9362 203.066 86.5066 206.352 87.9618C206.898 88.2067 207.134 89.2153 207.559 89.8276C208.605 91.3116 209.833 92.6803 210.703 94.2723C211.924 96.4983 213.091 98.8251 213.78 101.267C213.908 101.728 211.776 103.558 210.575 103.709C204.712 104.451 199.929 107.779 194.963 110.668C194.221 111.1 193.661 112.217 193.365 113.139C191.206 119.867 188.959 126.574 187.084 133.396C184.533 142.653 182.239 151.982 179.952 161.318C179.197 164.416 178.772 167.607 178.273 170.762C178.117 171.742 178.219 172.772 178.192 174.278C183.805 171.058 189.155 168.335 193.297 163.667C195.044 161.7 198.431 161.549 199.382 164.207C201.231 169.394 205.198 172.362 208.888 175.697C209.239 176.014 209.462 176.489 210.13 177.433C207.978 178.831 206.008 180.192 203.97 181.424C199.659 184.017 195.227 186.402 190.996 189.125C185.235 192.835 179.615 196.79 173.934 200.644C169.468 203.677 165.043 206.774 160.536 209.721C156.461 212.386 152.305 214.922 148.156 217.458C146.334 218.574 144.553 218.171 142.846 217.025C138.036 213.812 133.212 210.614 128.416 207.379C127.808 206.969 127.147 206.457 126.817 205.816C126.115 204.447 125.899 203.144 127.97 202.855C129.32 202.668 130.642 202.301 131.418 202.135C127.437 199.599 123.221 196.948 119.065 194.196C118.674 193.937 118.41 192.972 118.512 192.432C120.259 183.239 122.054 174.062 123.889 164.891C124.894 159.856 126 154.842 127.066 149.799C126.79 149.778 126.54 149.691 126.5 149.756C123.578 154.453 120.65 159.143 117.77 163.868C112.446 172.585 106.813 181.114 101.949 190.112C97.5366 198.267 93.9812 206.947 90.0412 215.39C88.8201 218.005 87.491 220.57 86.3913 223.235C85.8179 224.633 85.5885 226.203 85.2714 227.709C85.0757 228.638 85.1432 229.654 84.8194 230.518C84.5765 231.159 83.9288 232.009 83.4161 232.052C82.9169 232.089 82.1073 231.325 81.8576 230.713C79.4829 224.784 74.6321 221.297 70.4155 217.162C69.9095 216.665 69.4305 215.513 69.6194 214.907C71.785 207.905 74.0721 200.954 76.3457 193.995C78.9904 185.89 81.743 177.822 84.2797 169.675C86.2227 163.422 87.8756 157.068 89.6904 150.772C90.1559 149.165 90.7496 147.602 90.8913 145.744C89.8118 147.559 88.7998 149.439 87.6327 151.19C83.7129 157.046 79.746 162.867 75.779 168.688C72.905 172.895 69.923 177.023 67.1164 181.28C62.4883 188.297 56.801 194.204 50.7493 199.779C48.2329 202.099 45.7974 204.548 43.4766 207.091C42.7749 207.862 42.5793 209.159 42.1542 210.218C42.3296 210.455 42.5118 210.7 42.6872 210.938C37.2293 213.099 31.7511 215.217 26.3133 217.436C22.677 218.927 19.1418 220.714 15.4649 222.082C13.6096 222.774 11.5384 222.817 9.56842 223.141C7.17339 223.538 4.77837 223.934 2.3766 224.301C2.07975 224.344 1.75592 224.244 0.811401 224.143C1.56027 223.149 1.95157 222.378 2.54526 221.881C9.57516 216.01 16.686 210.232 23.6822 204.318C33.1746 196.293 42.3027 187.778 49.4945 177.325C57.8062 165.244 65.6524 152.803 73.5729 140.427C76.6291 135.644 79.0106 130.342 82.2827 125.746C86.3104 120.091 88.4693 113.478 91.6266 107.39C93.6911 103.4 96.1266 99.6248 98.245 95.6627C99.1963 93.8833 99.6955 91.8302 100.546 89.9789C102.536 85.6494 104.452 81.2694 106.698 77.0984C108.81 73.1868 111.623 69.6857 113.58 65.6948C116.123 60.5009 118.107 54.9899 120.367 49.6375C121.298 47.4259 122.182 45.1639 123.349 43.0892C126.844 36.8723 128.281 29.9279 129.826 23.005C130.386 20.4909 132.423 19.7777 134.258 18.9781C140.35 16.3199 146.503 13.8201 152.602 11.1835C154.606 10.3191 156.474 9.10163 158.498 8.30921C159.187 8.04267 160.192 8.50371 160.968 8.84949C161.17 8.94314 161.271 10.1678 161.069 10.3047C156.751 13.2942 156.009 18.6251 153.702 22.9257C148.601 32.442 145.14 42.7362 141.565 52.9296C136.147 68.3818 131.31 84.0645 126.162 99.6248C124.435 104.855 122.391 109.969 120.718 115.214C119.045 120.458 117.655 125.811 116.11 131.105C115.692 132.539 115.172 133.944 114.693 135.363C114.895 135.471 115.105 135.579 115.307 135.687C116.832 133.187 118.343 130.68 119.888 128.188C126.176 118.052 132.713 108.089 138.67 97.7302C142.482 91.1027 145.424 83.9132 148.75 76.9688C149.971 74.4258 150.983 71.7172 152.507 69.4048C153.135 68.4467 154.849 68.2305 156.124 67.9424C156.279 67.9064 156.758 69.5344 157.095 70.3917C157.324 70.9824 157.534 71.5875 157.824 72.1422C159.875 75.9963 162.951 78.8634 165.967 81.7809C167.255 83.0272 167.276 84.1366 166.257 85.6206C165.461 86.7876 164.847 88.1491 164.388 89.5178C162.303 95.7059 160.205 101.887 158.289 108.132C154.781 119.579 150.929 130.947 148.082 142.588C144.162 158.595 141.011 174.818 137.584 190.955C136.95 193.944 136.565 196.999 135.924 200.889L135.938 200.896Z" fill="#FFA600"/>
<path d="M292.438 110.503C290.184 105.179 286.75 100.792 282.507 97.1539C280.604 95.5186 278.398 95.2088 276.185 96.6064C273.277 98.4433 270.471 100.482 267.482 102.139C264.439 103.817 261.228 105.143 257.571 106.872C263.09 97.7878 268.393 89.3881 273.379 80.7724C278.634 71.6884 284.092 62.6908 287.371 52.4758C288.538 48.8595 289.59 45.1927 290.94 41.6557C292.046 38.7525 291.115 37.0308 288.126 36.3825C283.377 35.3595 278.661 34.1493 273.972 32.831C271.577 32.1538 269.972 32.6365 268.467 34.7544C266.699 37.2469 264.864 39.6818 262.915 42.0087C258.415 47.3755 253.645 52.4902 249.314 58.0083C240.334 69.4624 230.923 80.5635 223.744 93.5303C219.541 101.123 214.926 108.471 210.413 115.869C208.484 119.039 206.554 122.252 204.247 125.097C202.499 127.244 202.25 128.382 204.139 130.493C206.601 133.245 209.07 136.004 211.331 138.943C215.905 144.879 218.853 146.118 225.336 143.69C229.681 142.062 233.905 139.988 238.047 137.827C240.725 136.429 243.093 134.347 245.731 132.849C250.38 130.219 255.109 127.741 259.858 125.314C263.724 123.333 267.664 121.51 271.577 119.615C271.739 119.795 271.908 119.976 272.07 120.156C259.73 156.845 240.698 189.658 220.351 221.701C220.101 221.6 219.845 221.499 219.595 221.398C220.31 218.913 221.154 216.456 221.72 213.928C223.09 207.768 224.331 201.588 227.354 196.005C228.973 193.001 230.396 189.874 231.82 186.748C233.695 182.627 235.281 178.334 237.372 174.343C238.587 172.03 239.734 169.264 242.817 168.789C243.073 168.745 243.505 167.369 243.296 166.908C241.575 163.134 242.014 159.114 241.919 155.152C241.879 153.509 241.778 151.867 241.757 150.217C241.731 148.207 241.791 146.197 241.751 144.188C241.731 143.366 241.764 142.019 241.373 141.832C240.604 141.45 239.221 141.284 238.695 141.774C235.632 144.613 232.548 147.465 229.843 150.678C223.771 157.889 218.772 165.965 214.805 174.667C211.499 181.921 208.389 189.305 205.69 196.833C203.613 202.632 202.041 208.683 200.738 214.742C199.436 220.822 198.964 227.103 197.696 233.198C197.021 236.404 195.867 239.235 199.956 240.553C200.152 240.611 200.246 240.964 200.428 241.137C203.95 244.681 207.053 248.859 211.803 250.646C213.321 251.215 215.217 251.467 216.741 251.049C221.127 249.853 224.635 246.806 227.408 243.218C232.366 236.793 237.116 230.158 241.515 223.293C246.878 214.922 251.83 206.256 256.89 197.669C259.751 192.821 262.591 187.951 265.208 182.951C268.217 177.203 271.004 171.31 273.824 165.446C276.259 160.389 278.769 155.361 280.962 150.181C283.431 144.332 285.624 138.352 287.87 132.395C289.186 128.887 290.535 125.378 291.547 121.769C292.262 119.205 292.518 116.482 292.809 113.809C292.93 112.729 292.849 111.475 292.438 110.503ZM229.56 122.497C229.33 122.252 229.101 122.007 228.872 121.769C231.908 117.008 234.943 112.246 238.114 107.268C240.125 109.811 241.865 112.015 243.835 114.515C238.87 117.296 234.215 119.896 229.56 122.497Z" fill="#FFA600"/>
<path d="M271.746 226.167C271.773 224.524 271.624 222.853 271.854 221.247C274.296 204.109 278.971 187.591 283.849 171.108C287.04 160.339 289.752 149.418 292.836 138.612C296.512 125.724 300.358 112.887 304.123 100.028C305.29 96.0444 304.136 94.4668 300.183 94.6829C297.504 94.8342 294.839 95.1296 292.161 95.252C291.574 95.2808 290.893 94.9783 290.387 94.6253C286.399 91.8014 282.412 88.9559 278.486 86.0311C277.487 85.2891 276.705 84.2158 275.841 83.3225C276.259 82.8326 276.408 82.5877 276.468 82.6093C279.518 83.7187 282.115 81.7737 284.908 81.1974C292.572 79.627 300.216 77.9485 307.907 76.5581C310.127 76.1547 311.233 75.2975 311.996 72.9706C316.82 58.2965 321.745 43.6655 326.798 29.0778C327.951 25.7496 329.773 22.688 331.196 19.4607C331.777 18.1424 332.019 16.6512 332.606 15.3257C332.87 14.7278 333.524 14.1947 334.111 13.9786C334.32 13.8993 334.894 14.8142 335.244 15.3185C335.622 15.8588 335.818 16.6872 336.31 16.9826C338.921 18.5242 340.439 21.0167 341.977 23.6245C343.745 26.6213 345.83 29.4092 347.82 32.2547C349.081 34.0628 349.884 35.554 347.752 37.5567C346.423 38.8029 345.809 40.9209 344.865 42.6354C342.382 47.1666 339.657 51.5753 337.498 56.2794C335.986 59.5859 335.258 63.2959 334.158 66.8258C333.558 68.7492 332.91 70.6582 332.127 73.0427C333.828 72.9778 335.015 73.0283 336.182 72.877C343.603 71.9117 351.045 71.0688 358.425 69.8154C361.59 69.2751 364.619 67.8127 367.722 66.833C368.808 66.4872 369.942 66.2062 371.068 66.127C372.681 66.0117 374.098 67.9135 373.315 69.167C369.922 74.5627 368.727 80.8372 367.23 86.9316C366.474 90.0076 365.334 91.3908 362.251 91.6789C353.838 92.4569 345.465 93.7032 337.059 94.5821C333.841 94.9207 330.562 94.5821 327.337 94.9134C326.474 94.9999 325.286 96.2678 324.996 97.2547C323.141 103.464 321.61 109.789 319.754 115.992C316.59 126.56 313.183 137.041 310.026 147.617C307.982 154.467 306.241 161.433 304.278 168.313C302.672 173.939 300.823 179.493 299.299 185.148C298.057 189.752 296.216 194.47 296.317 199.095C296.438 204.498 292.174 205.485 290.083 208.525C287.249 212.638 283.869 216.348 280.51 220C278.216 222.493 275.551 224.589 273.055 226.866C272.616 226.642 272.178 226.412 271.746 226.189V226.167Z" fill="#FFA600"/>
<path d="M820.092 204.26C819.606 202.906 818.877 201.292 817.798 200.601C815.092 198.865 812.063 197.712 809.277 196.105C799.461 190.436 788.916 187.324 777.919 185.862C771.071 184.947 764.183 184.392 757.308 183.672C756.006 183.535 754.657 183.672 755.035 181.374C756.64 171.519 755.298 161.765 753.51 152.133C751.446 141.068 746.804 131.033 741.042 121.704C734.37 110.906 727.198 100.46 720.175 89.914C718.772 87.8033 716.735 86.1248 715.554 83.8988C709.725 72.877 711.378 63.5192 716.856 53.8877C719.892 48.5497 723.387 43.4998 726.821 38.4356C728.575 35.8494 730.646 33.5081 732.575 31.0589C732.737 31.1885 732.906 31.3254 733.075 31.4551C732.926 31.9161 732.811 32.3988 732.623 32.8454C730.153 38.7957 727.86 44.847 725.134 50.6676C722.516 56.2506 719.487 61.6174 716.573 67.0419C715.702 68.67 716.202 70.7591 717.699 71.746C722.766 75.0886 727.873 78.3591 733 81.5936C733.432 81.8674 734.363 81.925 734.653 81.6296C735.085 81.183 735.308 80.3329 735.321 79.6486C735.328 79.1515 734.856 78.64 734.748 78.4383C735.881 76.2412 736.886 74.361 737.824 72.4448C740.624 66.7465 743.12 60.8466 746.284 55.3861C751.155 46.9937 754.421 37.7152 756.573 28.1125C757.268 25.0076 758.158 21.9532 758.739 18.834C758.88 18.056 758.233 16.8745 757.619 16.2406C756.951 15.549 755.885 15.3257 755.028 14.8215C753.065 13.6616 751.115 12.4802 749.307 11.3852C749.152 11.2916 748.983 11.2195 748.808 11.1691L735.861 7.64645C732.731 6.70996 729.56 5.91033 726.429 4.97384C724.412 4.36872 723.326 5.21877 722.685 7.26465C721.72 10.3551 720.749 13.5464 719.13 16.255C717.308 19.295 714.616 21.7227 712.572 24.633C707.458 31.9233 702.236 39.1631 697.588 46.792C695.388 50.4011 693.472 54.464 693.486 59.1681C693.52 68.2738 695.692 76.4933 700.853 83.9493C707.539 93.6168 713.705 103.695 720.175 113.535C725.114 121.049 729.222 129.204 732.036 137.884C736.448 151.507 737.905 165.568 736.111 180.012C735.787 182.569 734.829 183.146 732.683 183.211C727.252 183.369 721.821 183.722 716.39 184.039C706.325 184.623 696.252 185.242 686.179 185.833C683.994 185.955 682.948 184.904 684.79 181.021C685.822 178.852 686.449 176.497 686.591 174.069C687.212 163.861 691.752 155.966 697.588 148.906C699.234 146.918 700.523 145.153 701.258 142.387C702.924 136.076 705.886 130.032 708.895 124.399C710.561 121.287 712.552 118.405 714.609 115.581C715.965 113.723 715.642 112.973 714.09 112.325C713.712 112.174 713.314 112.066 712.929 111.929C709.192 110.603 705.441 109.343 701.737 107.938C698.559 106.742 694.869 108.406 693.304 111.59C692.11 114.011 690.578 116.244 689.141 118.513C686.692 122.382 684.068 126.135 681.767 130.097C679.817 133.454 678.434 137.185 676.431 140.499C672.862 146.399 670.298 152.717 668.706 159.496C667.889 162.982 667.35 166.541 666.662 170.186C662.398 167.348 660.866 163.227 662.087 158.703C662.425 157.464 662.526 156.153 662.722 154.871C663.491 149.734 664.246 144.598 665.029 139.469C666.446 130.14 667.95 120.818 669.293 111.475C670.318 104.35 670.703 97.089 672.194 90.0797C673.806 82.4725 676.471 75.1318 678.468 67.611C679.797 62.6116 680.701 57.4896 681.916 52.4542C682.806 48.7514 683.582 44.9478 685.026 41.49C685.795 39.6314 686.26 38.3347 685.255 36.5338C684.371 34.9489 684.115 32.3411 682.887 31.6856C678.697 29.4812 677.207 25.0149 674.427 21.6579C673.489 20.5197 671.985 19.7561 670.602 19.3166C670.258 19.2086 669.063 20.9519 668.794 21.9965C666.115 32.2691 663.653 42.5994 660.927 52.8504C657.608 65.3058 654.127 77.7036 650.645 90.1013C649.148 95.4321 647.609 100.756 645.876 106C641.214 120.098 635.216 133.584 628.935 146.918C627.066 150.873 624.489 154.446 622.236 158.199C622.033 158.141 621.824 158.091 621.615 158.033C621.521 157.241 621.298 156.434 621.345 155.649C621.851 147.854 622.047 140.024 623.018 132.294C624.192 122.958 626.061 113.715 627.579 104.422C628.449 99.0484 629.225 93.66 630.035 88.2715C630.817 83.0776 631.559 77.8836 632.389 72.6969C632.666 71.004 632.504 69.7289 630.986 68.6916C628.179 66.7826 625.508 64.643 622.735 62.6692C620.536 61.106 618.323 59.5211 615.988 58.1956C615.172 57.7346 613.985 58.0083 612.453 57.9075C614.983 62.9862 614.194 67.3949 613.006 71.7892C612.608 73.2804 611.812 74.6707 611.563 76.1835C610.969 79.7134 610.699 83.3153 610.112 86.8452C607.474 102.744 604.512 118.585 602.192 134.534C600.91 143.301 601.018 152.241 603.71 160.843C605.862 167.73 608.142 174.516 615.314 177.548C618.883 179.061 622.391 180.783 626.257 179.414C630.595 177.88 634.211 175.077 636.997 171.18C638.603 168.94 640.08 166.599 641.747 164.113C642.455 165.381 643.406 166.31 643.427 167.261C643.534 171.994 645.734 174.451 649.883 176.014C653.115 177.239 655.914 179.724 658.95 181.554C660.077 182.231 661.75 182.548 661.932 180.841C662.175 178.586 663.565 178.168 665.319 177.023C664.962 179.904 664.543 182.317 664.408 184.738C664.327 186.207 663.261 187.382 661.892 187.511C651.624 188.455 641.369 189.543 631.114 190.551C629.826 190.681 628.503 190.515 627.235 190.724C624.199 191.221 621.197 191.927 618.167 192.424C611.131 193.57 604.06 194.47 597.051 195.788C587.37 197.611 577.789 200.255 568.054 201.552C559.115 202.74 550.027 202.589 541.007 203.064C537.776 203.23 534.639 203.086 532.075 200.593C531.272 199.823 530.516 198.987 529.41 197.827C529.329 200.514 528.054 202.221 528.438 204.865C529.781 214.043 534.119 221.326 539.847 227.881C540.441 228.559 541.844 228.789 542.815 228.667C545.527 228.321 548.192 227.543 550.904 227.183C558.555 226.16 566.287 225.655 573.856 224.193C580.36 222.94 586.654 220.498 593.097 218.841C600.991 216.802 608.931 215.023 616.859 213.157C622.458 211.839 628.051 210.499 633.671 209.288C640.499 207.819 647.346 206.45 654.194 205.096C656.265 204.692 658.377 204.57 660.448 204.167C663.059 203.655 664.078 204.44 664.152 207.387C664.321 213.812 664.429 220.238 664.57 226.664C664.624 229.085 665.144 231.195 667.168 232.766C672.7 237.052 678.05 241.612 683.656 245.776C686.969 248.232 690.423 250.862 694.188 252.144C701.831 254.744 709.947 255.364 717.375 251.805C730.423 245.545 740.165 235.15 745.394 220.894C748.902 211.327 751.034 201.177 753.645 191.25C754.144 189.355 754.839 188.268 756.735 188.383C763.704 188.801 770.538 188.037 777.575 190.739C786.143 194.031 794.192 198.115 802.024 202.884C802.982 203.468 803.805 204.649 804.784 204.793C809.304 205.427 813.858 205.802 818.398 206.263C819.808 206.407 820.571 205.593 820.092 204.26ZM721.322 226.066C716.573 233.047 710.568 238.608 703.599 242.93C700.563 244.818 699.828 244.515 697.217 241.929C693.31 238.053 690.679 233.306 688.703 228.105C685.431 219.467 684.284 210.355 683.744 201.148C683.71 200.514 684.736 199.304 685.363 199.217C689.317 198.713 693.304 198.512 697.264 198.065C698.418 197.928 699.558 197.409 700.651 196.919C703.302 195.731 705.812 193.865 708.558 193.346C716.161 191.906 723.845 190.998 731.503 189.925C732.258 189.817 733.054 189.997 733.972 190.054C731.354 202.906 728.575 215.39 721.322 226.066Z" fill="#FFA600"/>
<path d="M605.417 69.3759C605.288 64.4269 603.77 59.9029 601.672 55.6095C600.1 52.4038 598.157 49.407 596.444 46.2805C596.147 45.7258 596.079 44.9694 596.079 44.3067C596.086 42.3977 595 41.454 593.61 42.4985C591.303 44.2274 589.164 46.2157 586.992 48.1319C586.411 48.6506 585.959 49.3205 585.015 50.4227C583.909 45.5241 581.014 41.7493 582.606 36.9156C582.701 36.6346 582.647 36.2096 582.505 35.943C581.298 33.7387 577.769 33.3569 576.42 35.4748C573.782 39.6386 571.178 43.8456 568.877 48.2255C566.118 53.4987 563.696 58.9664 561.119 64.3621C560.775 64.1604 560.559 64.1172 560.505 63.9947C559.358 61.4013 558.285 58.7719 557.078 56.2146C554.723 51.2007 553.245 51.035 548.624 53.8301C548.206 54.0822 547.909 54.5721 547.484 54.8026C545.872 55.6887 544.232 56.5171 542.532 57.4032C542.282 56.6756 542.107 56.4163 542.141 56.2002C543.051 49.868 543.956 43.5359 544.934 37.2181C545.237 35.2371 545.581 33.1336 548.759 33.184C547.761 31.6496 547.194 30.4105 546.317 29.5172C542.734 25.8721 538.95 22.4359 535.441 18.7043C533.809 16.9538 532.75 14.7854 529.916 14.7206C528.216 14.6846 527.764 15.1168 527.663 16.7737C527.467 20.0082 527.271 23.2499 526.833 26.4556C526.097 31.8513 525.166 37.2109 524.323 42.5922C523.965 44.8758 523.554 47.1522 523.264 49.4502C522.616 54.6658 522.076 59.8957 521.361 65.1041C521.274 65.7884 520.565 66.6745 519.951 66.9267C517.705 67.8271 515.323 68.3386 513.097 69.2895C505.122 72.6969 497.215 76.2988 489.228 79.663C486.738 80.7148 484.06 81.2406 480.882 82.1771C481.604 78.3591 482.272 75.2687 482.771 72.1566C484.444 61.7039 486.165 51.2656 487.629 40.7768C487.932 38.6301 489.477 36.0223 486.934 34.0773C483.898 31.7576 480.929 29.3155 477.806 27.1256C476.058 25.9009 474.122 24.8852 472.152 24.136C469.851 23.2571 467.598 24.6258 467.571 26.7726C467.537 29.2435 467.814 31.7216 467.868 34.1997C467.895 35.4676 467.841 36.7643 467.632 38.0105C466.876 42.5922 465.972 47.1522 465.237 51.741C464.4 56.9422 463.793 62.1865 462.889 67.3805C461.789 73.6694 460.42 79.9007 459.3 86.1897C458.672 89.7123 458.328 93.1341 454.119 94.121C451.696 94.6901 449.409 95.9796 447.082 96.9954C445.361 97.7446 443.648 99.2718 441.968 99.2214C438.467 99.1277 435.849 101.375 432.759 102.218C428.441 103.4 424.663 106.749 419.914 105.741C418.517 108.111 419.462 109.523 421.324 110.711C422.7 111.59 424.096 112.505 425.297 113.629C427.611 115.797 429.703 118.232 432.044 120.365C435.14 123.188 438.615 123.722 442.413 121.928C446.016 120.235 449.659 118.628 453.626 118.643C451.845 139.656 450.084 160.497 448.357 180.877C447.763 181.986 447.008 182.814 446.9 183.736C446.657 185.883 446.765 188.073 446.657 190.242C446.185 199.938 445.611 209.627 445.233 219.331C445.112 222.529 447.116 223.696 449.922 222.371C449.76 221.009 449.43 219.626 449.49 218.264C449.544 216.917 449.875 215.534 450.313 214.252C450.853 212.689 451.69 211.248 452.283 209.706C452.992 207.862 453.457 205.903 454.253 204.109C456.379 199.318 458.666 194.607 460.804 189.817C463.395 184.046 465.729 178.132 468.516 172.47C469.764 169.948 470.755 167.744 469.676 164.913C469.433 164.265 469.656 163.386 469.723 162.615C469.905 160.367 470.094 158.12 470.324 155.879C470.971 149.41 471.558 142.934 472.334 136.479C472.84 132.272 473.724 128.123 474.257 123.923C474.729 120.242 474.891 116.51 475.303 112.815C475.498 111.064 475.384 109.047 477.367 108.161C480.666 106.692 483.958 105.179 487.285 103.774C494.841 100.583 502.417 97.442 509.987 94.2795C512.375 93.2854 514.763 92.3057 517.583 91.1459C517.165 94.0418 516.76 96.3398 516.517 98.645C516.119 102.427 515.991 106.245 515.445 110.005C514.649 115.459 513.529 120.854 512.658 126.3C511.545 133.267 510.56 140.261 509.501 147.242C508.799 151.845 507.895 156.427 507.389 161.059C506.472 169.322 505.709 177.606 505.035 185.898C504.367 194.103 503.847 202.33 503.328 210.556C502.761 219.453 502.262 228.364 501.736 237.268C501.553 240.423 501.385 243.586 501.209 246.748C501.506 246.921 501.796 247.101 502.093 247.281C504.272 244.947 507.173 243.002 508.482 240.2C511.167 234.459 512.989 228.256 515.168 222.241C515.377 221.672 515.451 221.002 515.789 220.541C518.4 217.011 519.256 213.027 519.445 208.539C519.627 203.972 520.7 199.448 521.395 194.902C522.528 187.454 523.628 179.991 524.829 172.549C525.767 166.75 526.907 160.987 527.811 155.181C528.648 149.799 529.228 144.375 530.044 138.986C531.238 131.033 532.594 123.109 533.782 115.156C534.585 109.761 535.178 104.329 535.927 98.9188C536.514 94.7118 536.986 90.4687 537.938 86.3553C538.288 84.8497 539.665 83.3513 540.933 82.4076C542.647 81.147 544.657 80.2753 546.627 79.4973C549.724 78.2654 552.895 77.2569 556.679 75.9314C556.349 77.4226 556.268 77.9989 556.099 78.5536C554.946 82.2564 553.536 85.8943 552.665 89.6691C548.766 106.54 544.967 123.441 543.47 140.816C542.586 151.024 542.977 161.131 545.399 171.065C547.099 178.031 548.759 185.134 555.802 188.52C560.073 190.573 564.371 192.215 569.147 190.386C573.02 188.902 575.529 185.566 577.378 182.159C582.431 172.844 587.37 163.465 591.35 153.488C595.351 143.446 598.231 133.094 600.721 122.598C602.158 116.547 603.109 110.33 603.824 104.12C604.769 95.8572 605.396 87.544 605.896 79.238C606.098 75.9746 605.497 72.6681 605.417 69.3759ZM584.104 82.8399C584.05 88.5597 582.579 102.384 582.073 104.235C581.77 105.345 581.541 108.946 581.014 109.408C582.107 111.554 581.756 113.391 580.009 114.724C581.122 117.116 580.63 119.234 579.26 121.366C578.613 122.367 578.383 123.7 578.1 124.917C577.695 126.632 577.486 128.404 577.054 130.111C576.258 133.31 575.469 136.523 574.47 139.664C573.964 141.256 572.939 142.66 572.311 144.224C571.954 145.102 571.913 146.125 571.731 147.083C571.657 147.055 571.583 147.019 571.508 146.983C571.164 148.056 570.908 149.173 570.449 150.188C569.97 151.247 569.188 152.148 568.736 153.214C567.433 156.304 566.26 159.445 564.984 162.55C564.694 163.263 564.202 163.89 563.804 164.553C563.574 164.502 563.352 164.459 563.129 164.409C562.92 162.68 562.488 160.951 562.542 159.229C562.738 153.178 562.718 147.069 563.507 141.09C564.519 133.403 566.253 125.825 567.636 118.196C568.972 110.798 570.044 103.335 571.657 96.0084C572.601 91.7294 574.301 87.616 575.799 83.4882C577.965 77.5235 580.245 71.6019 582.505 65.6732C582.728 65.0825 583.119 64.5566 583.43 63.9947C583.672 64.0307 583.915 64.0595 584.158 64.0956C584.266 66.5016 584.462 68.9149 584.455 71.321C584.448 73.4749 584.124 75.6361 584.158 77.7828C584.165 78.5176 584.833 79.238 585.271 80.0952C584.968 80.7724 584.111 81.8025 584.104 82.8399Z" fill="#FFA600"/>
<path d="M849.567 9.97312C850.755 9.85066 851.942 9.69938 853.136 9.60573C856.428 9.34639 859.674 8.82051 862.973 10.11C867.473 11.8749 872.161 13.0996 876.668 14.8501C884.002 17.6884 890.586 22.0251 896.685 27.1614C902.109 31.7286 907.439 36.4255 912.674 41.2449C915.002 43.3844 916.952 45.985 919.131 48.3046C921.02 50.3145 923.26 52.0146 924.879 54.2406C928.461 59.168 931.956 64.1962 935.073 69.455C937.185 73.0137 938.736 76.9758 940.281 80.8731C943.418 88.7828 946.738 96.635 949.322 104.754C951.798 112.534 952.182 120.732 951.932 128.973C951.555 141.436 949.261 153.567 945.577 165.273C942.899 173.781 939.128 181.95 935.248 189.939C932.961 194.664 929.945 199.181 926.518 203.043C916.911 213.855 905.8 222.378 891.787 225.439C883.813 227.183 876.007 226.923 867.972 224.344C856.813 220.764 847.982 213.675 839.522 205.744C834.448 200.989 829.489 196.062 824.801 190.882C819.653 185.206 814.768 179.241 809.938 173.255C801.64 162.968 792.269 154.287 780.152 149.468C775.517 147.624 770.97 145.491 766.261 143.928C763.906 143.143 761.275 143.193 758.765 143.143C756.937 143.107 755.237 141.716 755.453 139.548C755.844 135.579 756.222 131.552 757.214 127.727C757.646 126.055 759.386 124.528 760.87 123.455C766.929 119.068 773.115 114.875 779.241 110.603C779.477 110.438 779.612 110.106 779.788 109.854C779.626 109.703 779.572 109.595 779.504 109.587C777.912 109.443 776.563 111.583 774.755 109.94C772.427 107.83 769.58 106.274 769.067 102.549C768.575 98.9546 767.981 95.3815 767.381 91.8012C767.226 90.8792 766.909 89.9931 766.814 89.6401C769.182 87.9904 771.415 86.5281 773.561 84.9288C782.83 78.0348 792.107 71.1407 801.323 64.1674C807.226 59.701 813.102 55.1915 818.837 50.4802C820.314 49.2627 821.636 47.3609 822.217 45.4879C823.08 42.7001 824.436 42.7145 826.433 43.6654C826.865 43.8671 827.31 44.0472 828.228 44.4434C828.295 43.2691 828.289 42.3831 828.397 41.5042C829.287 34.358 830.184 27.2118 831.129 20.0729C831.217 19.4245 831.79 18.8554 831.911 18.1999C832.31 16.0531 832.62 13.8848 832.944 11.7236C833.031 11.1401 832.964 10.5134 833.126 9.95871C833.76 7.77596 834.327 5.64363 833.18 3.40324C832.93 2.91338 833.214 2.11376 833.274 0.961151C834.36 1.52305 835.143 1.75357 835.717 2.25784C839.852 5.90297 843.968 9.58412 848.049 13.3013C850.606 15.6353 851.18 18.2575 850.599 22.0683C848.697 34.5525 845.755 46.9647 847.01 59.8307C847.476 64.578 847.219 69.4046 847.725 74.1375C848.137 77.9843 849.122 81.7735 850.006 85.5483C850.512 87.7023 850.707 89.6257 848.299 90.3893C847.543 90.627 846.315 90.4613 845.769 89.9283C841.674 85.9445 836.364 84.4606 831.581 81.9248C829.078 80.5993 828.471 79.4107 828.929 76.5292C829.179 74.9515 829.139 73.3163 829.226 71.7098C828.97 71.5369 828.707 71.364 828.45 71.1911C822.615 75.5494 816.779 79.9005 810.943 84.2589C811.024 84.5038 811.098 84.7487 811.179 85.0008C811.76 85.0369 812.346 85.1521 812.92 85.1017C816.718 84.7415 820.517 84.0715 824.301 84.1292C825.502 84.1436 827.02 85.8509 827.796 87.1764C830.427 91.6428 832.809 96.282 835.244 100.878C835.73 101.793 836.027 102.83 836.506 104.048C827.115 104.069 820.773 110.214 813.804 114.817C807.921 118.7 802.159 122.799 796.357 126.819C795.143 127.662 793.969 128.57 792.417 129.708C794.934 131.79 797.308 133.54 799.454 135.564C805.357 141.14 811.281 146.702 816.981 152.515C823.681 159.344 829.968 166.634 836.769 173.341C842.423 178.917 848.65 183.83 854.458 189.247C860.982 195.327 868.417 199.599 876.439 202.87C887.361 207.322 898.318 208.042 909.099 202.654C925.135 194.636 935.855 181.885 939.431 162.903C940.929 154.964 940.936 147.026 940.254 139.022C939.87 134.534 939.492 130.046 939.209 125.551C938.736 118.102 936.982 110.956 934.965 103.853C934.722 102.996 934.688 101.851 935.012 101.058C938.156 93.4941 935.97 86.3768 933.4 79.3603C930.094 70.3483 924.676 62.7122 919.131 55.1843C910.273 43.1755 899.519 33.2703 887.53 25.1948C878.861 19.3525 869.496 14.5692 858.823 13.7479C855.673 13.503 852.617 11.8533 849.52 10.852L849.587 10.0019L849.567 9.97312Z" fill="#FFA600"/>
</g>
<defs>
<clipPath id="clip0_64_1856">
<rect width="951.189" height="253.337" fill="white" transform="translate(0.811401 0.954102)"/>
</clipPath>
</defs>
</svg>
